<svg width="32" height="32" viewBox="0 0 32 32" fill="none" xmlns="http://www.w3.org/2000/svg">
<path d="M6.94666 2.09334C8.48528 1.60374 10.1272 1.53662 11.7006 1.89902C13.2741 2.26142 14.7212 3.04001 15.8907 4.15334C15.9209 4.18033 15.9601 4.19524 16.0007 4.19524C16.0412 4.19524 16.0804 4.18033 16.1107 4.15334C17.1122 3.19762 18.321 2.48619 19.6428 2.07451C20.9645 1.66283 22.3635 1.56204 23.7307 1.78001L23.736 1.78134C25.5561 2.07915 27.2421 2.92478 28.5693 4.20547C29.8964 5.48615 30.8015 7.14101 31.164 8.94934V8.95334C31.4254 10.2785 31.3825 11.6458 31.0383 12.952C30.6942 14.2581 30.0578 15.469 29.1773 16.4933L18.572 29.1333C18.2569 29.5087 17.8634 29.8105 17.4192 30.0176C16.9749 30.2247 16.4908 30.332 16.0007 30.332C15.5105 30.332 15.0264 30.2247 14.5822 30.0176C14.1379 29.8105 13.7445 29.5087 13.4293 29.1333L2.82666 16.4933C1.94476 15.4695 1.30725 14.2586 0.962374 12.952C0.617496 11.6455 0.574279 10.2777 0.835992 8.95201C1.14572 7.36579 1.87643 5.89209 2.95154 4.68538C4.02665 3.47867 5.40657 2.58337 6.94666 2.09334V2.09334ZM11.1067 4.49734C10.2771 4.30569 9.41748 4.283 8.57898 4.43065C7.74049 4.57829 6.9403 4.89323 6.22611 5.35671C5.51192 5.82018 4.89836 6.4227 4.42198 7.12835C3.94561 7.834 3.61618 8.62833 3.45333 9.46401L3.45199 9.46667C3.26801 10.3971 3.29833 11.3571 3.54068 12.2741C3.78302 13.191 4.23101 14.0407 4.85066 14.7587L4.86266 14.772L15.4733 27.4187C15.5382 27.4951 15.6189 27.5565 15.7098 27.5986C15.8007 27.6407 15.8998 27.6625 16 27.6625C16.1002 27.6625 16.1992 27.6407 16.2902 27.5986C16.3811 27.5565 16.4618 27.4951 16.5267 27.4187L27.1507 14.7587C27.7692 14.0411 28.2165 13.1923 28.4588 12.2764C28.7011 11.3605 28.7321 10.4016 28.5493 9.47201C28.2931 8.19614 27.6543 7.0286 26.718 6.12487C25.7816 5.22115 24.5921 4.62413 23.308 4.41334C22.3453 4.25988 21.3602 4.3312 20.4296 4.62172C19.4991 4.91224 18.6484 5.41409 17.944 6.08801L17.9333 6.09867C17.409 6.58899 16.7179 6.86176 16 6.86176C15.2821 6.86176 14.591 6.58899 14.0667 6.09867L14.0573 6.08934C13.234 5.30341 12.2143 4.75352 11.1053 4.49734H11.1067Z" fill="white"/>
</svg>
