<svg width="32" height="32" viewBox="0 0 32 32" fill="none" xmlns="http://www.w3.org/2000/svg">
<path d="M11.556 2.54933C10.1576 2.22638 8.69945 2.26967 7.32263 2.67503C5.94581 3.08038 4.69685 3.83408 3.69649 4.86326C2.69612 5.89245 1.9782 7.16231 1.61211 8.55009C1.24602 9.93786 1.24414 11.3966 1.60667 12.7853C1.92667 13.9933 2.51734 15.1147 3.33334 16.0613L13.94 28.704C14.1922 29.0052 14.5073 29.2474 14.8632 29.4136C15.2192 29.5798 15.6072 29.666 16 29.666C16.3928 29.666 16.7809 29.5798 17.1368 29.4136C17.4927 29.2474 17.8078 29.0052 18.06 28.704L28.668 16.0613C29.4839 15.1138 30.0737 13.9932 30.393 12.7842C30.7122 11.5752 30.7524 10.3095 30.5107 9.08266L29.8573 9.21199L30.5107 9.07999C30.1745 7.40477 29.3356 5.87183 28.1059 4.68552C26.8763 3.49921 25.3142 2.71589 23.628 2.43999H23.6253C22.3586 2.23761 21.0622 2.33088 19.8375 2.71252C18.6128 3.09417 17.4929 3.75384 16.5653 4.63999C16.4117 4.78272 16.2097 4.86205 16 4.86205C15.7903 4.86205 15.5883 4.78272 15.4347 4.63999C14.3521 3.60789 13.012 2.88581 11.5547 2.54933H11.556Z" fill="#EE0C23"/>
</svg>
