<svg width="24" height="24" viewBox="0 0 24 24" fill="none" xmlns="http://www.w3.org/2000/svg">
<path d="M12.5 3.24702C12.348 3.15925 12.1755 3.11305 12 3.11305C11.8245 3.11305 11.652 3.15925 11.5 3.24702L4 7.57702V20H8.5V14C8.5 13.7348 8.60536 13.4805 8.79289 13.2929C8.98043 13.1054 9.23478 13 9.5 13H14.5C14.7652 13 15.0196 13.1054 15.2071 13.2929C15.3946 13.4805 15.5 13.7348 15.5 14V20H20V7.57702L12.5 3.24702ZM10.5 1.51502C10.9561 1.25172 11.4734 1.1131 12 1.1131C12.5266 1.1131 13.0439 1.25172 13.5 1.51502L21 5.84502C21.304 6.02055 21.5565 6.27302 21.732 6.57705C21.9076 6.88108 22 7.22596 22 7.57702V21C22 21.2652 21.8946 21.5196 21.7071 21.7071C21.5196 21.8947 21.2652 22 21 22H14.5C14.2348 22 13.9804 21.8947 13.7929 21.7071C13.6054 21.5196 13.5 21.2652 13.5 21V15H10.5V21C10.5 21.2652 10.3946 21.5196 10.2071 21.7071C10.0196 21.8947 9.76522 22 9.5 22H3C2.73478 22 2.48043 21.8947 2.29289 21.7071C2.10536 21.5196 2 21.2652 2 21V7.57702C2.00001 7.22596 2.09243 6.88108 2.26796 6.57705C2.4435 6.27302 2.69597 6.02055 3 5.84502L10.5 1.51502V1.51502Z" fill="white"/>
</svg>
