<svg width="154" height="30" viewBox="0 0 154 30" fill="none" xmlns="http://www.w3.org/2000/svg">
<path d="M15 0.46875C6.97852 0.46875 0.46875 6.97852 0.46875 15C0.46875 23.0215 6.97852 29.5312 15 29.5312C23.0215 29.5312 29.5312 23.0215 29.5312 15C29.5312 6.97852 23.0215 0.46875 15 0.46875ZM20.9004 21.8496C20.6543 21.8496 20.502 21.7734 20.2734 21.6387C16.6172 19.4355 12.3633 19.3418 8.16211 20.2031C7.93359 20.2617 7.63477 20.3555 7.46484 20.3555C6.89648 20.3555 6.53906 19.9043 6.53906 19.4297C6.53906 18.8262 6.89648 18.5391 7.33594 18.4453C12.1348 17.3848 17.0391 17.4785 21.2227 19.9805C21.5801 20.209 21.791 20.4141 21.791 20.9473C21.791 21.4805 21.375 21.8496 20.9004 21.8496V21.8496ZM22.4766 18.0059C22.1719 18.0059 21.9668 17.8711 21.7559 17.7598C18.0937 15.5918 12.6328 14.7188 7.77539 16.0371C7.49414 16.1133 7.3418 16.1895 7.07813 16.1895C6.45117 16.1895 5.94141 15.6797 5.94141 15.0527C5.94141 14.4258 6.24609 14.0098 6.84961 13.8398C8.47852 13.3828 10.1426 13.043 12.5801 13.043C16.3828 13.043 20.0566 13.9863 22.9512 15.709C23.4258 15.9902 23.6133 16.3535 23.6133 16.8633C23.6074 17.4961 23.1152 18.0059 22.4766 18.0059V18.0059ZM24.293 13.541C23.9883 13.541 23.8008 13.4648 23.5371 13.3125C19.3652 10.8223 11.9063 10.2246 7.07813 11.5723C6.86719 11.6309 6.60352 11.7246 6.32227 11.7246C5.54883 11.7246 4.95703 11.1211 4.95703 10.3418C4.95703 9.54492 5.44922 9.09375 5.97656 8.94141C8.03906 8.33789 10.3477 8.05078 12.8613 8.05078C17.1387 8.05078 21.6211 8.94141 24.8965 10.8516C25.3535 11.1152 25.6523 11.4785 25.6523 12.1758C25.6523 12.9727 25.0078 13.541 24.293 13.541V13.541Z" fill="white"/>
<path d="M152 11.125C151.138 11.125 150.438 11.826 150.438 12.6875C150.438 13.549 151.138 14.25 152 14.25C152.862 14.25 153.562 13.549 153.562 12.6875C153.562 11.826 152.862 11.125 152 11.125ZM152 13.9376C151.311 13.9376 150.75 13.3768 150.75 12.6875C150.75 11.9983 151.311 11.4376 152 11.4376C152.689 11.4376 153.25 11.9983 153.25 12.6875C153.25 13.3768 152.689 13.9376 152 13.9376Z" fill="white" fill-opacity="0.8"/>
<path d="M152.016 11.875H151.438V13.5H151.698V13.0203H152.138L152.413 13.5H152.688L152.374 12.9384C152.854 12.7228 152.854 11.875 152.016 11.875ZM152.048 12.8124H151.7V12.0828H152.048C152.601 12.0828 152.601 12.8124 152.048 12.8124" fill="white" fill-opacity="0.8"/>
<path d="M46.4 22L46.38 13.6L42.26 20.52H40.8L36.7 13.78V22H33.66V8H36.34L41.58 16.7L46.74 8H49.4L49.44 22H46.4ZM61.6816 16.66C61.6816 16.7 61.6616 16.98 61.6216 17.5H53.4816C53.6282 18.1667 53.9749 18.6933 54.5216 19.08C55.0682 19.4667 55.7482 19.66 56.5616 19.66C57.1216 19.66 57.6149 19.58 58.0416 19.42C58.4816 19.2467 58.8882 18.98 59.2616 18.62L60.9216 20.42C59.9082 21.58 58.4282 22.16 56.4816 22.16C55.2682 22.16 54.1949 21.9267 53.2616 21.46C52.3282 20.98 51.6082 20.32 51.1016 19.48C50.5949 18.64 50.3416 17.6867 50.3416 16.62C50.3416 15.5667 50.5882 14.62 51.0816 13.78C51.5882 12.9267 52.2749 12.2667 53.1416 11.8C54.0216 11.32 55.0016 11.08 56.0816 11.08C57.1349 11.08 58.0882 11.3067 58.9416 11.76C59.7949 12.2133 60.4616 12.8667 60.9416 13.72C61.4349 14.56 61.6816 15.54 61.6816 16.66ZM56.1016 13.44C55.3949 13.44 54.8016 13.64 54.3216 14.04C53.8416 14.44 53.5482 14.9867 53.4416 15.68H58.7416C58.6349 15 58.3416 14.46 57.8616 14.06C57.3816 13.6467 56.7949 13.44 56.1016 13.44ZM69.2988 21.48C68.9921 21.7067 68.6121 21.88 68.1588 22C67.7188 22.1067 67.2521 22.16 66.7588 22.16C65.4788 22.16 64.4854 21.8333 63.7788 21.18C63.0854 20.5267 62.7388 19.5667 62.7388 18.3V13.88H61.0788V11.48H62.7388V8.86H65.8588V11.48H68.5388V13.88H65.8588V18.26C65.8588 18.7133 65.9721 19.0667 66.1988 19.32C66.4388 19.56 66.7721 19.68 67.1988 19.68C67.6921 19.68 68.1121 19.5467 68.4588 19.28L69.2988 21.48ZM73.9902 11.08C75.6568 11.08 76.9368 11.48 77.8302 12.28C78.7235 13.0667 79.1702 14.26 79.1702 15.86V22H76.2502V20.66C75.6635 21.66 74.5702 22.16 72.9702 22.16C72.1435 22.16 71.4235 22.02 70.8102 21.74C70.2102 21.46 69.7502 21.0733 69.4302 20.58C69.1102 20.0867 68.9502 19.5267 68.9502 18.9C68.9502 17.9 69.3235 17.1133 70.0702 16.54C70.8302 15.9667 71.9968 15.68 73.5702 15.68H76.0502C76.0502 15 75.8435 14.48 75.4302 14.12C75.0168 13.7467 74.3968 13.56 73.5702 13.56C72.9968 13.56 72.4302 13.6533 71.8702 13.84C71.3235 14.0133 70.8568 14.2533 70.4702 14.56L69.3502 12.38C69.9368 11.9667 70.6368 11.6467 71.4502 11.42C72.2768 11.1933 73.1235 11.08 73.9902 11.08ZM73.7502 20.06C74.2835 20.06 74.7568 19.94 75.1702 19.7C75.5835 19.4467 75.8768 19.08 76.0502 18.6V17.5H73.9102C72.6302 17.5 71.9902 17.92 71.9902 18.76C71.9902 19.16 72.1435 19.48 72.4502 19.72C72.7702 19.9467 73.2035 20.06 73.7502 20.06ZM80.5939 7.16H83.7139V22H80.5939V7.16ZM90.0295 22.24C88.9229 22.24 87.8495 22.0933 86.8095 21.8C85.7829 21.4933 84.9562 21.1 84.3295 20.62L85.4295 18.18C86.0295 18.62 86.7429 18.9733 87.5695 19.24C88.3962 19.5067 89.2229 19.64 90.0495 19.64C90.9695 19.64 91.6495 19.5067 92.0895 19.24C92.5295 18.96 92.7495 18.5933 92.7495 18.14C92.7495 17.8067 92.6162 17.5333 92.3495 17.32C92.0962 17.0933 91.7629 16.9133 91.3495 16.78C90.9495 16.6467 90.4029 16.5 89.7095 16.34C88.6429 16.0867 87.7695 15.8333 87.0895 15.58C86.4095 15.3267 85.8229 14.92 85.3295 14.36C84.8495 13.8 84.6095 13.0533 84.6095 12.12C84.6095 11.3067 84.8295 10.5733 85.2695 9.92C85.7095 9.25333 86.3695 8.72667 87.2495 8.34C88.1429 7.95333 89.2295 7.76 90.5095 7.76C91.4029 7.76 92.2762 7.86667 93.1295 8.08C93.9829 8.29333 94.7295 8.6 95.3695 9L94.3695 11.46C93.0762 10.7267 91.7829 10.36 90.4895 10.36C89.5829 10.36 88.9095 10.5067 88.4695 10.8C88.0429 11.0933 87.8295 11.48 87.8295 11.96C87.8295 12.44 88.0762 12.8 88.5695 13.04C89.0762 13.2667 89.8429 13.4933 90.8695 13.72C91.9362 13.9733 92.8095 14.2267 93.4895 14.48C94.1695 14.7333 94.7495 15.1333 95.2295 15.68C95.7229 16.2267 95.9695 16.9667 95.9695 17.9C95.9695 18.7 95.7429 19.4333 95.2895 20.1C94.8495 20.7533 94.1829 21.2733 93.2895 21.66C92.3962 22.0467 91.3095 22.24 90.0295 22.24ZM102.923 11.08C103.923 11.08 104.83 11.3133 105.643 11.78C106.47 12.2333 107.117 12.88 107.583 13.72C108.05 14.5467 108.283 15.5133 108.283 16.62C108.283 17.7267 108.05 18.7 107.583 19.54C107.117 20.3667 106.47 21.0133 105.643 21.48C104.83 21.9333 103.923 22.16 102.923 22.16C101.55 22.16 100.47 21.7267 99.6834 20.86V25.88H96.5634V11.24H99.5434V12.48C100.317 11.5467 101.443 11.08 102.923 11.08ZM102.383 19.6C103.183 19.6 103.837 19.3333 104.343 18.8C104.863 18.2533 105.123 17.5267 105.123 16.62C105.123 15.7133 104.863 14.9933 104.343 14.46C103.837 13.9133 103.183 13.64 102.383 13.64C101.583 13.64 100.923 13.9133 100.403 14.46C99.8968 14.9933 99.6434 15.7133 99.6434 16.62C99.6434 17.5267 99.8968 18.2533 100.403 18.8C100.923 19.3333 101.583 19.6 102.383 19.6ZM114.092 22.16C112.959 22.16 111.939 21.9267 111.032 21.46C110.139 20.98 109.439 20.32 108.932 19.48C108.425 18.64 108.172 17.6867 108.172 16.62C108.172 15.5533 108.425 14.6 108.932 13.76C109.439 12.92 110.139 12.2667 111.032 11.8C111.939 11.32 112.959 11.08 114.092 11.08C115.225 11.08 116.239 11.32 117.132 11.8C118.025 12.2667 118.725 12.92 119.232 13.76C119.739 14.6 119.992 15.5533 119.992 16.62C119.992 17.6867 119.739 18.64 119.232 19.48C118.725 20.32 118.025 20.98 117.132 21.46C116.239 21.9267 115.225 22.16 114.092 22.16ZM114.092 19.6C114.892 19.6 115.545 19.3333 116.052 18.8C116.572 18.2533 116.832 17.5267 116.832 16.62C116.832 15.7133 116.572 14.9933 116.052 14.46C115.545 13.9133 114.892 13.64 114.092 13.64C113.292 13.64 112.632 13.9133 112.112 14.46C111.592 14.9933 111.332 15.7133 111.332 16.62C111.332 17.5267 111.592 18.2533 112.112 18.8C112.632 19.3333 113.292 19.6 114.092 19.6ZM127.618 21.48C127.311 21.7067 126.931 21.88 126.478 22C126.038 22.1067 125.571 22.16 125.078 22.16C123.798 22.16 122.804 21.8333 122.098 21.18C121.404 20.5267 121.058 19.5667 121.058 18.3V13.88H119.398V11.48H121.058V8.86H124.178V11.48H126.858V13.88H124.178V18.26C124.178 18.7133 124.291 19.0667 124.518 19.32C124.758 19.56 125.091 19.68 125.518 19.68C126.011 19.68 126.431 19.5467 126.778 19.28L127.618 21.48ZM127.969 11.24H131.089V22H127.969V11.24ZM129.529 9.74C128.956 9.74 128.489 9.57333 128.129 9.24C127.769 8.90667 127.589 8.49333 127.589 8C127.589 7.50667 127.769 7.09333 128.129 6.76C128.489 6.42667 128.956 6.26 129.529 6.26C130.102 6.26 130.569 6.42 130.929 6.74C131.289 7.06 131.469 7.46 131.469 7.94C131.469 8.46 131.289 8.89333 130.929 9.24C130.569 9.57333 130.102 9.74 129.529 9.74ZM136.005 11.48H138.765V13.88H136.085V22H132.965V13.88H131.305V11.48H132.965V11C132.965 9.77333 133.325 8.8 134.045 8.08C134.778 7.36 135.805 7 137.125 7C137.591 7 138.031 7.05333 138.445 7.16C138.871 7.25333 139.225 7.39333 139.505 7.58L138.685 9.84C138.325 9.58667 137.905 9.46 137.425 9.46C136.478 9.46 136.005 9.98 136.005 11.02V11.48ZM149.794 11.24L144.934 22.66C144.441 23.9 143.828 24.7733 143.094 25.28C142.374 25.7867 141.501 26.04 140.474 26.04C139.914 26.04 139.361 25.9533 138.814 25.78C138.268 25.6067 137.821 25.3667 137.474 25.06L138.614 22.84C138.854 23.0533 139.128 23.22 139.434 23.34C139.754 23.46 140.068 23.52 140.374 23.52C140.801 23.52 141.148 23.4133 141.414 23.2C141.681 23 141.921 22.66 142.134 22.18L142.174 22.08L137.514 11.24H140.734L143.754 18.54L146.794 11.24H149.794Z" fill="white"/>
</svg>
