<svg width="24" height="24" viewBox="0 0 24 24" fill="none" xmlns="http://www.w3.org/2000/svg">
<path d="M12.5 4.134C12.652 4.04623 12.8245 4.00003 13 4.00003C13.1755 4.00003 13.348 4.04623 13.5 4.134L19.5 7.598C19.652 7.68577 19.7783 7.812 19.866 7.96401C19.9538 8.11603 20 8.28847 20 8.464V23C20 23.2652 19.8946 23.5196 19.7071 23.7071C19.5196 23.8946 19.2652 24 19 24H13C12.7348 24 12.4804 23.8946 12.2929 23.7071C12.1054 23.5196 12 23.2652 12 23V5C12 4.82447 12.0462 4.65203 12.134 4.50001C12.2217 4.348 12.348 4.22177 12.5 4.134V4.134ZM14 6.732V22H18V9.041L14 6.732ZM1 24C0.734784 24 0.48043 23.8946 0.292893 23.7071C0.105357 23.5196 0 23.2652 0 23V5C0 4.73478 0.105357 4.48043 0.292893 4.29289C0.48043 4.10536 0.734784 4 1 4C1.26522 4 1.51957 4.10536 1.70711 4.29289C1.89464 4.48043 2 4.73478 2 5V23C2 23.2652 1.89464 23.5196 1.70711 23.7071C1.51957 23.8946 1.26522 24 1 24ZM7 24C6.73478 24 6.48043 23.8946 6.29289 23.7071C6.10536 23.5196 6 23.2652 6 23V5C6 4.73478 6.10536 4.48043 6.29289 4.29289C6.48043 4.10536 6.73478 4 7 4C7.26522 4 7.51957 4.10536 7.70711 4.29289C7.89464 4.48043 8 4.73478 8 5V23C8 23.2652 7.89464 23.5196 7.70711 23.7071C7.51957 23.8946 7.26522 24 7 24Z" fill="white" fill-opacity="0.8"/>
</svg>
