<svg width="23" height="24" viewBox="0 0 23 24" fill="none" xmlns="http://www.w3.org/2000/svg">
<path d="M0 1C0 0.447716 0.447715 0 1 0H22C22.5523 0 23 0.447715 23 1V23C23 23.5523 22.5523 24 22 24H1C0.447715 24 0 23.5523 0 23V1Z" fill="url(#paint0_linear_15_11)" fill-opacity="0.8"/>
<path d="M16.652 9.60802C16.5224 8.96348 16.1994 8.37373 15.7262 7.91736C15.2529 7.46099 14.6519 7.15966 14.003 7.05352C13.5155 6.97581 13.0167 7.01188 12.5455 7.15889C12.0742 7.30591 11.6434 7.5599 11.2865 7.90102C11.1704 8.00904 11.0177 8.06908 10.859 8.06908C10.7004 8.06908 10.5477 8.00904 10.4315 7.90102C9.83911 7.328 9.04864 7.00533 8.22445 7.00007C7.40026 6.99481 6.60574 7.30737 6.00605 7.87278C5.40635 8.43819 5.04762 9.21295 5.00441 10.036C4.9612 10.8591 5.23684 11.6672 5.77404 12.2923L10.211 17.5798C10.2904 17.6742 10.3896 17.7502 10.5014 17.8023C10.6133 17.8544 10.7352 17.8814 10.8587 17.8814C10.9821 17.8814 11.104 17.8544 11.2159 17.8023C11.3278 17.7502 11.4269 17.6742 11.5063 17.5798L15.9433 12.2923C16.257 11.9281 16.4839 11.4973 16.6067 11.0325C16.7295 10.5678 16.745 10.0812 16.652 9.60952V9.60802Z" fill="white" fill-opacity="0.8"/>
<defs>
<linearGradient id="paint0_linear_15_11" x1="17.5" y1="3" x2="26.5" y2="19" gradientUnits="userSpaceOnUse">
<stop offset="0.015625" stop-color="#910614"/>
<stop offset="0.291667" stop-color="#900F24" stop-opacity="0.993756"/>
<stop offset="0.90615" stop-color="#C85259"/>
</linearGradient>
</defs>
</svg>
