<svg width="23" height="24" viewBox="0 0 23 24" fill="none" xmlns="http://www.w3.org/2000/svg">
<path d="M0 1C0 0.447716 0.447715 0 1 0H22C22.5523 0 23 0.447715 23 1V23C23 23.5523 22.5523 24 22 24H1C0.447715 24 0 23.5523 0 23V1Z" fill="white" fill-opacity="0.8"/>
<path d="M16.875 12.4375C16.875 12.5867 16.8157 12.7298 16.7102 12.8352C16.6048 12.9407 16.4617 13 16.3125 13H12V17.3125C12 17.4617 11.9407 17.6048 11.8352 17.7102C11.7298 17.8157 11.5867 17.875 11.4375 17.875C11.2883 17.875 11.1452 17.8157 11.0398 17.7102C10.9343 17.6048 10.875 17.4617 10.875 17.3125V13H6.5625C6.41332 13 6.27024 12.9407 6.16475 12.8352C6.05926 12.7298 6 12.5867 6 12.4375C6 12.2883 6.05926 12.1452 6.16475 12.0398C6.27024 11.9343 6.41332 11.875 6.5625 11.875H10.875V7.5625C10.875 7.41332 10.9343 7.27024 11.0398 7.16475C11.1452 7.05926 11.2883 7 11.4375 7C11.5867 7 11.7298 7.05926 11.8352 7.16475C11.9407 7.27024 12 7.41332 12 7.5625V11.875H16.3125C16.4617 11.875 16.6048 11.9343 16.7102 12.0398C16.8157 12.1452 16.875 12.2883 16.875 12.4375Z" fill="black"/>
</svg>
