<svg width="24" height="24" viewBox="0 0 24 24" fill="none" xmlns="http://www.w3.org/2000/svg">
<path d="M10.533 1.27902C5.35301 1.27902 1.12601 5.41901 1.12601 10.558C1.12601 15.697 5.35201 19.837 10.533 19.837C12.767 19.837 14.823 19.067 16.44 17.779L20.793 22.132C20.8853 22.2275 20.9956 22.3037 21.1176 22.3561C21.2396 22.4085 21.3708 22.4361 21.5036 22.4373C21.6364 22.4384 21.7681 22.4131 21.891 22.3628C22.0139 22.3126 22.1255 22.2383 22.2194 22.1444C22.3133 22.0505 22.3875 21.9389 22.4378 21.816C22.4881 21.6931 22.5134 21.5614 22.5123 21.4286C22.5111 21.2958 22.4835 21.1646 22.4311 21.0426C22.3787 20.9206 22.3025 20.8103 22.207 20.718L17.863 16.374C19.2079 14.7343 19.942 12.6787 19.94 10.558C19.94 5.41802 15.714 1.27802 10.533 1.27802V1.27902ZM3.12601 10.558C3.12601 6.55201 6.42801 3.27802 10.533 3.27802C14.638 3.27802 17.94 6.55201 17.94 10.558C17.94 14.564 14.638 17.837 10.533 17.837C6.42801 17.837 3.12601 14.564 3.12601 10.557V10.558Z" fill="white" fill-opacity="0.8"/>
</svg>
