<svg width="25" height="25" viewBox="0 0 25 25" fill="none" xmlns="http://www.w3.org/2000/svg">
<rect width="25" height="25" rx="12.5" fill="#535353"/>
<g clip-path="url(#clip0_18_2)">
<path d="M17.1728 15.9743L14.6 14.4959C14.4584 14.4151 14.4176 14.2863 14.4056 14.2175C14.3936 14.1487 14.3896 14.0143 14.4952 13.8895L15.544 12.6599C16.2248 11.8647 16.6 10.8495 16.6 9.80069V9.40069C16.6 8.18869 16.0928 7.01909 15.2088 6.18949C14.312 5.34869 13.1384 4.93029 11.9088 5.00949C9.6048 5.15909 7.8008 7.14789 7.8008 9.53749V9.80069C7.8008 10.8495 8.176 11.8647 8.856 12.6599L9.9048 13.8895C10.0112 14.0135 10.0064 14.1479 9.9944 14.2175C9.9824 14.2863 9.9416 14.4151 9.7992 14.4959L7.2288 15.9735C5.8536 16.7543 5 18.2215 5 19.8015V21.0007H5.8V19.8015C5.8 18.5087 6.4992 17.3087 7.6264 16.6679L10.1984 15.1895C10.5088 15.0111 10.7216 14.7063 10.7824 14.3535C10.8432 14.0015 10.7456 13.6423 10.5128 13.3703L9.4632 12.1407C8.9064 11.4895 8.5992 10.6583 8.5992 9.80069V9.53749C8.5992 7.56869 10.0752 5.93029 11.9592 5.80789C12.9688 5.74309 13.9272 6.08549 14.6608 6.77269C15.3952 7.46149 15.8 8.39509 15.8 9.40069V9.80069C15.8 10.6583 15.4936 11.4895 14.936 12.1407L13.8872 13.3703C13.6552 13.6431 13.5568 14.0015 13.6176 14.3535C13.6792 14.7063 13.892 15.0111 14.2024 15.1895L16.7768 16.6687C17.9016 17.3079 18.6008 18.5079 18.6008 19.8015V21.0007H19.4008V19.8015C19.4 18.2215 18.5456 16.7543 17.1728 15.9743Z" fill="white"/>
</g>
<defs>
<clipPath id="clip0_18_2">
<rect width="16" height="16" fill="white" transform="translate(5 4)"/>
</clipPath>
</defs>
</svg>
